inDegrees=yes
name=ik_MT_01200627-001-000_orientations_updatedTime
DataType=double
version=3
OpenSimVersion=4.5-2024-07-10-f38669b70
endheader
time	pelvis_tilt	pelvis_list	pelvis_rotation	pelvis_tx	pelvis_ty	pelvis_tz	hip_flexion_r	hip_adduction_r	hip_rotation_r	knee_angle_r	knee_angle_r_beta	ankle_angle_r	subtalar_angle_r	mtp_angle_r	hip_flexion_l	hip_adduction_l	hip_rotation_l	knee_angle_l	knee_angle_l_beta	ankle_angle_l	subtalar_angle_l	mtp_angle_l	lumbar_extension	lumbar_bending	lumbar_rotation	arm_flex_r	arm_add_r	arm_rot_r	elbow_flex_r	pro_sup_r	wrist_flex_r	wrist_dev_r	arm_flex_l	arm_add_l	arm_rot_l	elbow_flex_l	pro_sup_l	wrist_flex_l	wrist_dev_l
1748342944.335505	1.436188186527443	-11.10549430388302	-82.55067395840074	0	0.9399999943917833	0	79.99999999525214	-7.000000001125469	0	79.99999999792263	1.396263401559207	0	0	0	79.99999999525214	-7.000000004501878	0	79.99999999802388	1.396263401560974	0	0	0	-16.80340260410423	0.6226325868879412	0.5599074593083835	67.08146927361805	-29.93019397523721	36.08417863589512	23.94541612989837	0.02711238864504125	19.96406564007954	-8.081616905702921	70.57690357148866	8.481859488130018	19.46706567602034	10.60932077495221	0.0373761371439672	9.62711349887333	5.97651031389133
1748342944.345505	1.426917298384342	-11.12457669038582	-82.54123016049228	0	0.9399999943917833	0	79.99999999525214	-7.000000001125469	0	79.99999999792263	1.396263401559207	0	0	0	79.99999999525214	-7.000000004501878	0	79.99999999802388	1.396263401560974	0	0	0	-16.83513172524868	0.6537423471088762	0.5425310510989352	67.03543222617489	-29.51896524404589	35.0966522226908	23.80979155487774	0.02497386038147362	20.2093220128058	-8.582425545392153	70.74142410588331	8.651074868820793	18.51905977951022	10.43731358369957	0.03564795620480609	9.754249084396502	5.920008275218235
1748342944.355505	1.439857377593889	-11.14135876949484	-82.53770506871794	0	0.9399999943917833	0	79.99999999525214	-7.000000001125469	0	79.99999999792263	1.396263401559207	0	0	0	79.99999999525214	-7.000000004501878	0	79.99999999802388	1.396263401560974	0	0	0	-16.84158738273466	0.6351586546461775	0.5526805173147491	66.96162704340193	-29.14565419952236	34.14703708764111	23.593317216821	0.02323670468799921	20.52218779717194	-9.027733839612583	70.90094731502832	8.828096343062036	17.62736992161763	10.14083363525202	0.03421415760921273	9.988225197322828	5.87296551388962
1748342944.365505	1.430196921311177	-11.1623502755628	-82.53593619022797	0	0.9399999943917833	0	79.99999999525214	-7.000000001125469	0	79.99999999792263	1.396263401559207	0	0	0	79.99999999525214	-7.000000004501878	0	79.99999999802388	1.396263401560974	0	0	0	-16.83542112307611	0.6496969774198379	0.5630113875098048	66.8598462647432	-28.80465481283833	33.26352162412706	23.46053608083417	0.02180765838426718	20.80183046627123	-9.447852477073088	71.01104589804763	9.002439710864206	16.77499528132789	9.947674421704672	0.03304958978006929	10.10028943808995	5.777302116039055
1748342944.375505	1.42872817902419	-11.1747923187441	-82.53049214250078	0	0.9399999943917833	0	79.99999999525214	-7.000000001125469	0	79.99999999792263	1.396263401559207	0	0	0	79.99999999525214	-7.000000004501878	0	79.99999999802388	1.396263401560974	0	0	0	-16.83656507943171	0.6416915844428386	0.5717068548014744	66.75683823656793	-28.51519003724048	32.43167459840051	23.31319008079508	0.02069143161273697	21.07209355401349	-9.782630669234411	71.12675515663123	9.145779671343599	15.99056404547009	9.693155012226885	0.03211488946258825	10.24090747790681	5.701977146542222
1748342944.385505	1.429401954675906	-11.19259995989195	-82.51594671824292	0	0.9399999943917833	0	79.99999999525214	-7.000000001125469	0	79.99999999792263	1.396263401559207	0	0	0	79.99999999525214	-7.000000004501878	0	79.99999999802388	1.396263401560974	0	0	0	-16.84061814257221	0.6479554452897394	0.5672422880229254	66.65662808991573	-28.29247747394193	31.67448248732927	23.19085570207235	0.01988593605062252	21.26167660345646	-10.01274068154559	71.22541069271315	9.261677955448079	15.2591350946805	9.449690717504435	0.0313799145654233	10.32132922031077	5.628135663321918
1748342944.395505	1.422905382747985	-11.2022542075581	-82.50884408041343	0	0.9399999943917833	0	79.99999999525214	-7.000000001125469	0	79.99999999792263	1.396263401559207	0	0	0	79.99999999525214	-7.000000004501878	0	79.99999999802388	1.396263401560974	0	0	0	-16.85372706494751	0.6511783147884638	0.5595195688435943	66.54759200096639	-28.116378536459	30.99828381121626	23.07113375600112	0.01928867006965925	21.43696263160984	-10.20172036420192	71.34317914846058	9.35320042361392	14.5953552752415	9.171139142258916	0.03066166814851625	10.39111914463595	5.581013440572288
1748342944.405505	1.425799870702858	-11.21264197112728	-82.50260152930905	0	0.9399999943917833	0	79.99999999525214	-7.000000001125469	0	79.99999999792263	1.396263401559207	0	0	0	79.99999999525214	-7.000000004501878	0	79.99999999802388	1.396263401560974	0	0	0	-16.85338925507623	0.657939342787817	0.5551403393565512	66.42914267655239	-27.95546167643427	30.40783010560904	22.92953957443654	0.01879738597236452	21.59005858066941	-10.35989885897735	71.42845771405302	9.458773626178109	13.98696742317669	8.895887908795586	0.02992446834600467	10.42690528475827	5.533042235666976
1748342944.415505	1.414858749781005	-11.21273502935976	-82.49778420658716	0	0.9399999943917833	0	79.99999999525214	-7.000000001125469	0	79.99999999792263	1.396263401559207	0	0	0	79.99999999525214	-7.000000004501878	0	79.99999999802388	1.396263401560974	0	0	0	-16.85419735984814	0.6652435096669962	0.5573951995742727	66.32178482064157	-27.79509832232153	29.89865625738118	22.77075073333472	0.0183475029889895	21.76742164508664	-10.53328155057249	71.52107692439277	9.557158931274332	13.46928793001123	8.590888651745297	0.02922290189555359	10.43642435392959	5.500306961809907
1748342944.425505	1.415941599703361	-11.23307163381851	-82.49472829035582	0	0.9399999943917833	0	79.99999999525214	-7.000000001125469	0	79.99999999792263	1.396263401559207	0	0	0	79.99999999525214	-7.000000004501878	0	79.99999999802388	1.396263401560974	0	0	0	-16.84763124109452	0.6789916779347686	0.54090840896776	66.20061647227507	-27.61400796266502	29.44196703442875	22.59362890032374	0.01792508124362065	21.87094886296739	-10.67718512773566	71.57745525748602	9.633524721833995	12.97036749758088	8.312496496290713	0.02850293488264305	10.44091631678935	5.436843414843982
